<?xml version="1.0" encoding="UTF-8" standalone="no"?><svg xmlns="http://www.w3.org/2000/svg" xmlns:xlink="http://www.w3.org/1999/xlink" contentScriptType="application/ecmascript" contentStyleType="text/css" height="1599px" preserveAspectRatio="none" style="width:2350px;height:1599px;" version="1.1" viewBox="0 0 2350 1599" width="2350px" zoomAndPan="magnify"><defs><filter height="300%" id="f1vnngu9505hii" width="300%" x="-1" y="-1"><feGaussianBlur result="blurOut" stdDeviation="2.0"/><feColorMatrix in="blurOut" result="blurOut2" type="matrix" values="0 0 0 0 0 0 0 0 0 0 0 0 0 0 0 0 0 0 .4 0"/><feOffset dx="4.0" dy="4.0" in="blurOut2" result="blurOut3"/><feBlend in="SourceGraphic" in2="blurOut3" mode="normal"/></filter></defs><g><!--cluster Backend--><polygon fill="#FFFFFF" filter="url(#f1vnngu9505hii)" points="22,656,95,656,102,678.2969,2328,678.2969,2328,1587,22,1587,22,656" style="stroke: #000000; stroke-width: 1.5;"/><line style="stroke: #000000; stroke-width: 1.5;" x1="22" x2="102" y1="678.2969" y2="678.2969"/><text fill="#000000" font-family="sans-serif" font-size="14" font-weight="bold" lengthAdjust="spacingAndGlyphs" textLength="67" x="26" y="670.9951">Backend</text><!--cluster Controllers--><polygon fill="#FFFFFF" filter="url(#f1vnngu9505hii)" points="891,707,985,707,992,729.2969,1617,729.2969,1617,1064.5,891,1064.5,891,707" style="stroke: #000000; stroke-width: 1.5;"/><line style="stroke: #000000; stroke-width: 1.5;" x1="891" x2="992" y1="729.2969" y2="729.2969"/><text fill="#000000" font-family="sans-serif" font-size="14" font-weight="bold" lengthAdjust="spacingAndGlyphs" textLength="88" x="895" y="721.9951">Controllers</text><!--cluster Storage--><polygon fill="#FFFFFF" filter="url(#f1vnngu9505hii)" points="1657,860,1725,860,1732,882.2969,2296,882.2969,2296,1555,1657,1555,1657,860" style="stroke: #000000; stroke-width: 1.5;"/><line style="stroke: #000000; stroke-width: 1.5;" x1="1657" x2="1732" y1="882.2969" y2="882.2969"/><text fill="#000000" font-family="sans-serif" font-size="14" font-weight="bold" lengthAdjust="spacingAndGlyphs" textLength="62" x="1661" y="874.9951">Storage</text><!--cluster Docker--><polygon fill="#FFFFFF" filter="url(#f1vnngu9505hii)" points="185,881,247,881,254,903.2969,718,903.2969,718,1267,185,1267,185,881" style="stroke: #000000; stroke-width: 1.5;"/><line style="stroke: #000000; stroke-width: 1.5;" x1="185" x2="254" y1="903.2969" y2="903.2969"/><text fill="#000000" font-family="sans-serif" font-size="14" font-weight="bold" lengthAdjust="spacingAndGlyphs" textLength="56" x="189" y="895.9951">Docker</text><!--cluster Frontend--><polygon fill="#FFFFFF" filter="url(#f1vnngu9505hii)" points="1275,24,1353,24,1360,46.2969,1741,46.2969,1741,632,1275,632,1275,24" style="stroke: #000000; stroke-width: 1.5;"/><line style="stroke: #000000; stroke-width: 1.5;" x1="1275" x2="1360" y1="46.2969" y2="46.2969"/><text fill="#000000" font-family="sans-serif" font-size="14" font-weight="bold" lengthAdjust="spacingAndGlyphs" textLength="72" x="1279" y="38.9951">Frontend</text><!--class Application--><rect fill="#FEFECE" filter="url(#f1vnngu9505hii)" height="73.6094" id="Application" style="stroke: #A80036; stroke-width: 1.5;" width="165" x="368.5" y="756"/><ellipse cx="412.3" cy="772" fill="#ADD1B2" rx="11" ry="11" style="stroke: #A80036; stroke-width: 1.0;"/><path d="M414.6438,767.6719 L414.8156,767.75 C415.0344,767.4375 415.2375,767.3438 415.5344,767.3438 C415.8313,767.3438 416.1125,767.4844 416.2688,767.75 C416.3625,767.9063 416.3781,768.0313 416.3781,768.4688 L416.3781,769.8906 C416.3781,770.3125 416.3469,770.5 416.2375,770.6563 C416.0656,770.875 415.8,771.0156 415.5344,771.0156 C415.3156,771.0156 415.0813,770.9063 414.9406,770.7656 C414.8,770.6406 414.7688,770.5156 414.7063,770.1094 C414.6125,769.7031 414.4406,769.4844 413.9563,769.2031 C413.4875,768.9531 412.8781,768.7969 412.3,768.7969 C410.5656,768.7969 409.3156,770.1094 409.3156,771.8906 L409.3156,772.9844 C409.3156,774.6875 410.6125,775.7813 412.6594,775.7813 C413.425,775.7813 414.1125,775.6563 414.5344,775.3906 C414.7219,775.2969 414.7219,775.2969 415.175,774.8125 C415.3625,774.625 415.5656,774.5469 415.7844,774.5469 C416.2531,774.5469 416.6438,774.9375 416.6438,775.3906 C416.6438,775.7813 416.3156,776.2344 415.7375,776.6406 C414.9875,777.1875 413.8313,777.4844 412.6125,777.4844 C409.7219,777.4844 407.6125,775.5938 407.6125,773.0156 L407.6125,771.8906 C407.6125,769.1719 409.6125,767.0938 412.2375,767.0938 C413.1125,767.0938 413.7063,767.2344 414.6438,767.6719 Z "/><text fill="#000000" font-family="sans-serif" font-size="12" lengthAdjust="spacingAndGlyphs" textLength="69" x="432.7" y="776.1543">Application</text><line style="stroke: #A80036; stroke-width: 1.5;" x1="369.5" x2="532.5" y1="788" y2="788"/><rect fill="none" height="6" style="stroke: #C82930; stroke-width: 1.0;" width="6" x="376.5" y="796.9023"/><text fill="#000000" font-family="sans-serif" font-size="11" lengthAdjust="spacingAndGlyphs" textLength="101" x="388.5" y="802.2104">String description</text><line style="stroke: #A80036; stroke-width: 1.5;" x1="369.5" x2="532.5" y1="808.8047" y2="808.8047"/><ellipse cx="379.5" cy="820.707" fill="#84BE84" rx="3" ry="3" style="stroke: #038048; stroke-width: 1.0;"/><text fill="#000000" font-family="sans-serif" font-size="11" lengthAdjust="spacingAndGlyphs" text-decoration="underline" textLength="139" x="388.5" y="823.0151">void main(String[] args);</text><line style="stroke: #000000; stroke-width: 1.0;" x1="388.5" x2="527.5" y1="825.0151" y2="825.0151"/><!--class Role--><rect fill="#FEFECE" filter="url(#f1vnngu9505hii)" height="60.8047" id="Role" style="stroke: #A80036; stroke-width: 1.5;" width="127" x="38.5" y="967"/><ellipse cx="84.25" cy="983" fill="#ADD1B2" rx="11" ry="11" style="stroke: #A80036; stroke-width: 1.0;"/><path d="M86.5938,978.6719 L86.7656,978.75 C86.9844,978.4375 87.1875,978.3438 87.4844,978.3438 C87.7813,978.3438 88.0625,978.4844 88.2188,978.75 C88.3125,978.9063 88.3281,979.0313 88.3281,979.4688 L88.3281,980.8906 C88.3281,981.3125 88.2969,981.5 88.1875,981.6563 C88.0156,981.875 87.75,982.0156 87.4844,982.0156 C87.2656,982.0156 87.0313,981.9063 86.8906,981.7656 C86.75,981.6406 86.7188,981.5156 86.6563,981.1094 C86.5625,980.7031 86.3906,980.4844 85.9063,980.2031 C85.4375,979.9531 84.8281,979.7969 84.25,979.7969 C82.5156,979.7969 81.2656,981.1094 81.2656,982.8906 L81.2656,983.9844 C81.2656,985.6875 82.5625,986.7813 84.6094,986.7813 C85.375,986.7813 86.0625,986.6563 86.4844,986.3906 C86.6719,986.2969 86.6719,986.2969 87.125,985.8125 C87.3125,985.625 87.5156,985.5469 87.7344,985.5469 C88.2031,985.5469 88.5938,985.9375 88.5938,986.3906 C88.5938,986.7813 88.2656,987.2344 87.6875,987.6406 C86.9375,988.1875 85.7813,988.4844 84.5625,988.4844 C81.6719,988.4844 79.5625,986.5938 79.5625,984.0156 L79.5625,982.8906 C79.5625,980.1719 81.5625,978.0938 84.1875,978.0938 C85.0625,978.0938 85.6563,978.2344 86.5938,978.6719 Z "/><text fill="#000000" font-family="sans-serif" font-size="12" lengthAdjust="spacingAndGlyphs" textLength="27" x="104.75" y="987.1543">Role</text><line style="stroke: #A80036; stroke-width: 1.5;" x1="39.5" x2="164.5" y1="999" y2="999"/><rect fill="none" height="6" style="stroke: #C82930; stroke-width: 1.0;" width="6" x="46.5" y="1007.9023"/><text fill="#000000" font-family="sans-serif" font-size="11" lengthAdjust="spacingAndGlyphs" textLength="101" x="58.5" y="1013.2104">String description</text><line style="stroke: #A80036; stroke-width: 1.5;" x1="39.5" x2="164.5" y1="1019.8047" y2="1019.8047"/><!--class UserApplication--><rect fill="#FEFECE" filter="url(#f1vnngu9505hii)" height="48" id="UserApplication" style="stroke: #A80036; stroke-width: 1.5;" width="130" x="737" y="973.5"/><ellipse cx="752" cy="989.5" fill="#ADD1B2" rx="11" ry="11" style="stroke: #A80036; stroke-width: 1.0;"/><path d="M754.3438,985.1719 L754.5156,985.25 C754.7344,984.9375 754.9375,984.8438 755.2344,984.8438 C755.5313,984.8438 755.8125,984.9844 755.9688,985.25 C756.0625,985.4063 756.0781,985.5313 756.0781,985.9688 L756.0781,987.3906 C756.0781,987.8125 756.0469,988 755.9375,988.1563 C755.7656,988.375 755.5,988.5156 755.2344,988.5156 C755.0156,988.5156 754.7813,988.4063 754.6406,988.2656 C754.5,988.1406 754.4688,988.0156 754.4063,987.6094 C754.3125,987.2031 754.1406,986.9844 753.6563,986.7031 C753.1875,986.4531 752.5781,986.2969 752,986.2969 C750.2656,986.2969 749.0156,987.6094 749.0156,989.3906 L749.0156,990.4844 C749.0156,992.1875 750.3125,993.2813 752.3594,993.2813 C753.125,993.2813 753.8125,993.1563 754.2344,992.8906 C754.4219,992.7969 754.4219,992.7969 754.875,992.3125 C755.0625,992.125 755.2656,992.0469 755.4844,992.0469 C755.9531,992.0469 756.3438,992.4375 756.3438,992.8906 C756.3438,993.2813 756.0156,993.7344 755.4375,994.1406 C754.6875,994.6875 753.5313,994.9844 752.3125,994.9844 C749.4219,994.9844 747.3125,993.0938 747.3125,990.5156 L747.3125,989.3906 C747.3125,986.6719 749.3125,984.5938 751.9375,984.5938 C752.8125,984.5938 753.4063,984.7344 754.3438,985.1719 Z "/><text fill="#000000" font-family="sans-serif" font-size="12" lengthAdjust="spacingAndGlyphs" textLength="98" x="766" y="993.6543">UserApplication</text><line style="stroke: #A80036; stroke-width: 1.5;" x1="738" x2="866" y1="1005.5" y2="1005.5"/><line style="stroke: #A80036; stroke-width: 1.5;" x1="738" x2="866" y1="1013.5" y2="1013.5"/><!--class User--><rect fill="#FEFECE" filter="url(#f1vnngu9505hii)" height="48" id="User" style="stroke: #A80036; stroke-width: 1.5;" width="61" x="1170.5" y="1177.5"/><ellipse cx="1185.5" cy="1193.5" fill="#ADD1B2" rx="11" ry="11" style="stroke: #A80036; stroke-width: 1.0;"/><path d="M1187.8438,1189.1719 L1188.0156,1189.25 C1188.2344,1188.9375 1188.4375,1188.8438 1188.7344,1188.8438 C1189.0313,1188.8438 1189.3125,1188.9844 1189.4688,1189.25 C1189.5625,1189.4063 1189.5781,1189.5313 1189.5781,1189.9688 L1189.5781,1191.3906 C1189.5781,1191.8125 1189.5469,1192 1189.4375,1192.1563 C1189.2656,1192.375 1189,1192.5156 1188.7344,1192.5156 C1188.5156,1192.5156 1188.2813,1192.4063 1188.1406,1192.2656 C1188,1192.1406 1187.9688,1192.0156 1187.9063,1191.6094 C1187.8125,1191.2031 1187.6406,1190.9844 1187.1563,1190.7031 C1186.6875,1190.4531 1186.0781,1190.2969 1185.5,1190.2969 C1183.7656,1190.2969 1182.5156,1191.6094 1182.5156,1193.3906 L1182.5156,1194.4844 C1182.5156,1196.1875 1183.8125,1197.2813 1185.8594,1197.2813 C1186.625,1197.2813 1187.3125,1197.1563 1187.7344,1196.8906 C1187.9219,1196.7969 1187.9219,1196.7969 1188.375,1196.3125 C1188.5625,1196.125 1188.7656,1196.0469 1188.9844,1196.0469 C1189.4531,1196.0469 1189.8438,1196.4375 1189.8438,1196.8906 C1189.8438,1197.2813 1189.5156,1197.7344 1188.9375,1198.1406 C1188.1875,1198.6875 1187.0313,1198.9844 1185.8125,1198.9844 C1182.9219,1198.9844 1180.8125,1197.0938 1180.8125,1194.5156 L1180.8125,1193.3906 C1180.8125,1190.6719 1182.8125,1188.5938 1185.4375,1188.5938 C1186.3125,1188.5938 1186.9063,1188.7344 1187.8438,1189.1719 Z "/><text fill="#000000" font-family="sans-serif" font-size="12" lengthAdjust="spacingAndGlyphs" textLength="29" x="1199.5" y="1197.6543">User</text><line style="stroke: #A80036; stroke-width: 1.5;" x1="1171.5" x2="1230.5" y1="1209.5" y2="1209.5"/><line style="stroke: #A80036; stroke-width: 1.5;" x1="1171.5" x2="1230.5" y1="1217.5" y2="1217.5"/><!--class Login--><rect fill="#FEFECE" filter="url(#f1vnngu9505hii)" height="48" id="Login" style="stroke: #A80036; stroke-width: 1.5;" width="65" x="1168.5" y="1330"/><ellipse cx="1183.5" cy="1346" fill="#ADD1B2" rx="11" ry="11" style="stroke: #A80036; stroke-width: 1.0;"/><path d="M1185.8438,1341.6719 L1186.0156,1341.75 C1186.2344,1341.4375 1186.4375,1341.3438 1186.7344,1341.3438 C1187.0313,1341.3438 1187.3125,1341.4844 1187.4688,1341.75 C1187.5625,1341.9063 1187.5781,1342.0313 1187.5781,1342.4688 L1187.5781,1343.8906 C1187.5781,1344.3125 1187.5469,1344.5 1187.4375,1344.6563 C1187.2656,1344.875 1187,1345.0156 1186.7344,1345.0156 C1186.5156,1345.0156 1186.2813,1344.9063 1186.1406,1344.7656 C1186,1344.6406 1185.9688,1344.5156 1185.9063,1344.1094 C1185.8125,1343.7031 1185.6406,1343.4844 1185.1563,1343.2031 C1184.6875,1342.9531 1184.0781,1342.7969 1183.5,1342.7969 C1181.7656,1342.7969 1180.5156,1344.1094 1180.5156,1345.8906 L1180.5156,1346.9844 C1180.5156,1348.6875 1181.8125,1349.7813 1183.8594,1349.7813 C1184.625,1349.7813 1185.3125,1349.6563 1185.7344,1349.3906 C1185.9219,1349.2969 1185.9219,1349.2969 1186.375,1348.8125 C1186.5625,1348.625 1186.7656,1348.5469 1186.9844,1348.5469 C1187.4531,1348.5469 1187.8438,1348.9375 1187.8438,1349.3906 C1187.8438,1349.7813 1187.5156,1350.2344 1186.9375,1350.6406 C1186.1875,1351.1875 1185.0313,1351.4844 1183.8125,1351.4844 C1180.9219,1351.4844 1178.8125,1349.5938 1178.8125,1347.0156 L1178.8125,1345.8906 C1178.8125,1343.1719 1180.8125,1341.0938 1183.4375,1341.0938 C1184.3125,1341.0938 1184.9063,1341.2344 1185.8438,1341.6719 Z "/><text fill="#000000" font-family="sans-serif" font-size="12" lengthAdjust="spacingAndGlyphs" textLength="33" x="1197.5" y="1350.1543">Login</text><line style="stroke: #A80036; stroke-width: 1.5;" x1="1169.5" x2="1232.5" y1="1362" y2="1362"/><line style="stroke: #A80036; stroke-width: 1.5;" x1="1169.5" x2="1232.5" y1="1370" y2="1370"/><!--class StudentController--><rect fill="#FEFECE" filter="url(#f1vnngu9505hii)" height="86.4141" id="StudentController" style="stroke: #A80036; stroke-width: 1.5;" width="143" x="1089.5" y="750"/><ellipse cx="1104.5" cy="766" fill="#ADD1B2" rx="11" ry="11" style="stroke: #A80036; stroke-width: 1.0;"/><path d="M1106.8438,761.6719 L1107.0156,761.75 C1107.2344,761.4375 1107.4375,761.3438 1107.7344,761.3438 C1108.0313,761.3438 1108.3125,761.4844 1108.4688,761.75 C1108.5625,761.9063 1108.5781,762.0313 1108.5781,762.4688 L1108.5781,763.8906 C1108.5781,764.3125 1108.5469,764.5 1108.4375,764.6563 C1108.2656,764.875 1108,765.0156 1107.7344,765.0156 C1107.5156,765.0156 1107.2813,764.9063 1107.1406,764.7656 C1107,764.6406 1106.9688,764.5156 1106.9063,764.1094 C1106.8125,763.7031 1106.6406,763.4844 1106.1563,763.2031 C1105.6875,762.9531 1105.0781,762.7969 1104.5,762.7969 C1102.7656,762.7969 1101.5156,764.1094 1101.5156,765.8906 L1101.5156,766.9844 C1101.5156,768.6875 1102.8125,769.7813 1104.8594,769.7813 C1105.625,769.7813 1106.3125,769.6563 1106.7344,769.3906 C1106.9219,769.2969 1106.9219,769.2969 1107.375,768.8125 C1107.5625,768.625 1107.7656,768.5469 1107.9844,768.5469 C1108.4531,768.5469 1108.8438,768.9375 1108.8438,769.3906 C1108.8438,769.7813 1108.5156,770.2344 1107.9375,770.6406 C1107.1875,771.1875 1106.0313,771.4844 1104.8125,771.4844 C1101.9219,771.4844 1099.8125,769.5938 1099.8125,767.0156 L1099.8125,765.8906 C1099.8125,763.1719 1101.8125,761.0938 1104.4375,761.0938 C1105.3125,761.0938 1105.9063,761.2344 1106.8438,761.6719 Z "/><text fill="#000000" font-family="sans-serif" font-size="12" lengthAdjust="spacingAndGlyphs" textLength="111" x="1118.5" y="770.1543">StudentController</text><line style="stroke: #A80036; stroke-width: 1.5;" x1="1090.5" x2="1231.5" y1="782" y2="782"/><line style="stroke: #A80036; stroke-width: 1.5;" x1="1090.5" x2="1231.5" y1="790" y2="790"/><rect fill="#F24D5C" height="6" style="stroke: #C82930; stroke-width: 1.0;" width="6" x="1097.5" y="798.9023"/><text fill="#000000" font-family="sans-serif" font-size="11" lengthAdjust="spacingAndGlyphs" textLength="73" x="1109.5" y="804.2104">addStudent()</text><rect fill="#F24D5C" height="6" style="stroke: #C82930; stroke-width: 1.0;" width="6" x="1097.5" y="811.707"/><text fill="#000000" font-family="sans-serif" font-size="11" lengthAdjust="spacingAndGlyphs" textLength="78" x="1109.5" y="817.0151">dropStudent()</text><rect fill="#F24D5C" height="6" style="stroke: #C82930; stroke-width: 1.0;" width="6" x="1097.5" y="824.5117"/><text fill="#000000" font-family="sans-serif" font-size="11" lengthAdjust="spacingAndGlyphs" textLength="91" x="1109.5" y="829.8198">updateStudent()</text><!--class FileUploadController--><rect fill="#FEFECE" filter="url(#f1vnngu9505hii)" height="48" id="FileUploadController" style="stroke: #A80036; stroke-width: 1.5;" width="158" x="1268" y="769"/><ellipse cx="1283" cy="785" fill="#ADD1B2" rx="11" ry="11" style="stroke: #A80036; stroke-width: 1.0;"/><path d="M1285.3438,780.6719 L1285.5156,780.75 C1285.7344,780.4375 1285.9375,780.3438 1286.2344,780.3438 C1286.5313,780.3438 1286.8125,780.4844 1286.9688,780.75 C1287.0625,780.9063 1287.0781,781.0313 1287.0781,781.4688 L1287.0781,782.8906 C1287.0781,783.3125 1287.0469,783.5 1286.9375,783.6563 C1286.7656,783.875 1286.5,784.0156 1286.2344,784.0156 C1286.0156,784.0156 1285.7813,783.9063 1285.6406,783.7656 C1285.5,783.6406 1285.4688,783.5156 1285.4063,783.1094 C1285.3125,782.7031 1285.1406,782.4844 1284.6563,782.2031 C1284.1875,781.9531 1283.5781,781.7969 1283,781.7969 C1281.2656,781.7969 1280.0156,783.1094 1280.0156,784.8906 L1280.0156,785.9844 C1280.0156,787.6875 1281.3125,788.7813 1283.3594,788.7813 C1284.125,788.7813 1284.8125,788.6563 1285.2344,788.3906 C1285.4219,788.2969 1285.4219,788.2969 1285.875,787.8125 C1286.0625,787.625 1286.2656,787.5469 1286.4844,787.5469 C1286.9531,787.5469 1287.3438,787.9375 1287.3438,788.3906 C1287.3438,788.7813 1287.0156,789.2344 1286.4375,789.6406 C1285.6875,790.1875 1284.5313,790.4844 1283.3125,790.4844 C1280.4219,790.4844 1278.3125,788.5938 1278.3125,786.0156 L1278.3125,784.8906 C1278.3125,782.1719 1280.3125,780.0938 1282.9375,780.0938 C1283.8125,780.0938 1284.4063,780.2344 1285.3438,780.6719 Z "/><text fill="#000000" font-family="sans-serif" font-size="12" lengthAdjust="spacingAndGlyphs" textLength="126" x="1297" y="789.1543">FileUploadController</text><line style="stroke: #A80036; stroke-width: 1.5;" x1="1269" x2="1425" y1="801" y2="801"/><line style="stroke: #A80036; stroke-width: 1.5;" x1="1269" x2="1425" y1="809" y2="809"/><!--class GradeController--><rect fill="#FEFECE" filter="url(#f1vnngu9505hii)" height="86.4141" id="GradeController" style="stroke: #A80036; stroke-width: 1.5;" width="131" x="1461.5" y="750"/><ellipse cx="1476.5" cy="766" fill="#ADD1B2" rx="11" ry="11" style="stroke: #A80036; stroke-width: 1.0;"/><path d="M1478.8438,761.6719 L1479.0156,761.75 C1479.2344,761.4375 1479.4375,761.3438 1479.7344,761.3438 C1480.0313,761.3438 1480.3125,761.4844 1480.4688,761.75 C1480.5625,761.9063 1480.5781,762.0313 1480.5781,762.4688 L1480.5781,763.8906 C1480.5781,764.3125 1480.5469,764.5 1480.4375,764.6563 C1480.2656,764.875 1480,765.0156 1479.7344,765.0156 C1479.5156,765.0156 1479.2813,764.9063 1479.1406,764.7656 C1479,764.6406 1478.9688,764.5156 1478.9063,764.1094 C1478.8125,763.7031 1478.6406,763.4844 1478.1563,763.2031 C1477.6875,762.9531 1477.0781,762.7969 1476.5,762.7969 C1474.7656,762.7969 1473.5156,764.1094 1473.5156,765.8906 L1473.5156,766.9844 C1473.5156,768.6875 1474.8125,769.7813 1476.8594,769.7813 C1477.625,769.7813 1478.3125,769.6563 1478.7344,769.3906 C1478.9219,769.2969 1478.9219,769.2969 1479.375,768.8125 C1479.5625,768.625 1479.7656,768.5469 1479.9844,768.5469 C1480.4531,768.5469 1480.8438,768.9375 1480.8438,769.3906 C1480.8438,769.7813 1480.5156,770.2344 1479.9375,770.6406 C1479.1875,771.1875 1478.0313,771.4844 1476.8125,771.4844 C1473.9219,771.4844 1471.8125,769.5938 1471.8125,767.0156 L1471.8125,765.8906 C1471.8125,763.1719 1473.8125,761.0938 1476.4375,761.0938 C1477.3125,761.0938 1477.9063,761.2344 1478.8438,761.6719 Z "/><text fill="#000000" font-family="sans-serif" font-size="12" lengthAdjust="spacingAndGlyphs" textLength="99" x="1490.5" y="770.1543">GradeController</text><line style="stroke: #A80036; stroke-width: 1.5;" x1="1462.5" x2="1591.5" y1="782" y2="782"/><line style="stroke: #A80036; stroke-width: 1.5;" x1="1462.5" x2="1591.5" y1="790" y2="790"/><rect fill="#F24D5C" height="6" style="stroke: #C82930; stroke-width: 1.0;" width="6" x="1469.5" y="798.9023"/><text fill="#000000" font-family="sans-serif" font-size="11" lengthAdjust="spacingAndGlyphs" textLength="64" x="1481.5" y="804.2104">addGrade()</text><rect fill="#F24D5C" height="6" style="stroke: #C82930; stroke-width: 1.0;" width="6" x="1469.5" y="811.707"/><text fill="#000000" font-family="sans-serif" font-size="11" lengthAdjust="spacingAndGlyphs" textLength="69" x="1481.5" y="817.0151">dropGrade()</text><rect fill="#F24D5C" height="6" style="stroke: #C82930; stroke-width: 1.0;" width="6" x="1469.5" y="824.5117"/><text fill="#000000" font-family="sans-serif" font-size="11" lengthAdjust="spacingAndGlyphs" textLength="82" x="1481.5" y="829.8198">updateGrade()</text><!--class AssignmentController--><rect fill="#FEFECE" filter="url(#f1vnngu9505hii)" height="86.4141" id="AssignmentController" style="stroke: #A80036; stroke-width: 1.5;" width="166" x="1078" y="954.5"/><ellipse cx="1093" cy="970.5" fill="#ADD1B2" rx="11" ry="11" style="stroke: #A80036; stroke-width: 1.0;"/><path d="M1095.3438,966.1719 L1095.5156,966.25 C1095.7344,965.9375 1095.9375,965.8438 1096.2344,965.8438 C1096.5313,965.8438 1096.8125,965.9844 1096.9688,966.25 C1097.0625,966.4063 1097.0781,966.5313 1097.0781,966.9688 L1097.0781,968.3906 C1097.0781,968.8125 1097.0469,969 1096.9375,969.1563 C1096.7656,969.375 1096.5,969.5156 1096.2344,969.5156 C1096.0156,969.5156 1095.7813,969.4063 1095.6406,969.2656 C1095.5,969.1406 1095.4688,969.0156 1095.4063,968.6094 C1095.3125,968.2031 1095.1406,967.9844 1094.6563,967.7031 C1094.1875,967.4531 1093.5781,967.2969 1093,967.2969 C1091.2656,967.2969 1090.0156,968.6094 1090.0156,970.3906 L1090.0156,971.4844 C1090.0156,973.1875 1091.3125,974.2813 1093.3594,974.2813 C1094.125,974.2813 1094.8125,974.1563 1095.2344,973.8906 C1095.4219,973.7969 1095.4219,973.7969 1095.875,973.3125 C1096.0625,973.125 1096.2656,973.0469 1096.4844,973.0469 C1096.9531,973.0469 1097.3438,973.4375 1097.3438,973.8906 C1097.3438,974.2813 1097.0156,974.7344 1096.4375,975.1406 C1095.6875,975.6875 1094.5313,975.9844 1093.3125,975.9844 C1090.4219,975.9844 1088.3125,974.0938 1088.3125,971.5156 L1088.3125,970.3906 C1088.3125,967.6719 1090.3125,965.5938 1092.9375,965.5938 C1093.8125,965.5938 1094.4063,965.7344 1095.3438,966.1719 Z "/><text fill="#000000" font-family="sans-serif" font-size="12" lengthAdjust="spacingAndGlyphs" textLength="134" x="1107" y="974.6543">AssignmentController</text><line style="stroke: #A80036; stroke-width: 1.5;" x1="1079" x2="1243" y1="986.5" y2="986.5"/><line style="stroke: #A80036; stroke-width: 1.5;" x1="1079" x2="1243" y1="994.5" y2="994.5"/><rect fill="#F24D5C" height="6" style="stroke: #C82930; stroke-width: 1.0;" width="6" x="1086" y="1003.4023"/><text fill="#000000" font-family="sans-serif" font-size="11" lengthAdjust="spacingAndGlyphs" textLength="96" x="1098" y="1008.7104">addAssignment()</text><rect fill="#F24D5C" height="6" style="stroke: #C82930; stroke-width: 1.0;" width="6" x="1086" y="1016.207"/><text fill="#000000" font-family="sans-serif" font-size="11" lengthAdjust="spacingAndGlyphs" textLength="101" x="1098" y="1021.5151">dropAssignment()</text><rect fill="#F24D5C" height="6" style="stroke: #C82930; stroke-width: 1.0;" width="6" x="1086" y="1029.0117"/><text fill="#000000" font-family="sans-serif" font-size="11" lengthAdjust="spacingAndGlyphs" textLength="114" x="1098" y="1034.3198">updateAssignment()</text><!--class TestController--><rect fill="#FEFECE" filter="url(#f1vnngu9505hii)" height="86.4141" id="TestController" style="stroke: #A80036; stroke-width: 1.5;" width="120" x="934" y="750"/><ellipse cx="949" cy="766" fill="#ADD1B2" rx="11" ry="11" style="stroke: #A80036; stroke-width: 1.0;"/><path d="M951.3438,761.6719 L951.5156,761.75 C951.7344,761.4375 951.9375,761.3438 952.2344,761.3438 C952.5313,761.3438 952.8125,761.4844 952.9688,761.75 C953.0625,761.9063 953.0781,762.0313 953.0781,762.4688 L953.0781,763.8906 C953.0781,764.3125 953.0469,764.5 952.9375,764.6563 C952.7656,764.875 952.5,765.0156 952.2344,765.0156 C952.0156,765.0156 951.7813,764.9063 951.6406,764.7656 C951.5,764.6406 951.4688,764.5156 951.4063,764.1094 C951.3125,763.7031 951.1406,763.4844 950.6563,763.2031 C950.1875,762.9531 949.5781,762.7969 949,762.7969 C947.2656,762.7969 946.0156,764.1094 946.0156,765.8906 L946.0156,766.9844 C946.0156,768.6875 947.3125,769.7813 949.3594,769.7813 C950.125,769.7813 950.8125,769.6563 951.2344,769.3906 C951.4219,769.2969 951.4219,769.2969 951.875,768.8125 C952.0625,768.625 952.2656,768.5469 952.4844,768.5469 C952.9531,768.5469 953.3438,768.9375 953.3438,769.3906 C953.3438,769.7813 953.0156,770.2344 952.4375,770.6406 C951.6875,771.1875 950.5313,771.4844 949.3125,771.4844 C946.4219,771.4844 944.3125,769.5938 944.3125,767.0156 L944.3125,765.8906 C944.3125,763.1719 946.3125,761.0938 948.9375,761.0938 C949.8125,761.0938 950.4063,761.2344 951.3438,761.6719 Z "/><text fill="#000000" font-family="sans-serif" font-size="12" lengthAdjust="spacingAndGlyphs" textLength="88" x="963" y="770.1543">TestController</text><line style="stroke: #A80036; stroke-width: 1.5;" x1="935" x2="1053" y1="782" y2="782"/><line style="stroke: #A80036; stroke-width: 1.5;" x1="935" x2="1053" y1="790" y2="790"/><rect fill="#F24D5C" height="6" style="stroke: #C82930; stroke-width: 1.0;" width="6" x="942" y="798.9023"/><text fill="#000000" font-family="sans-serif" font-size="11" lengthAdjust="spacingAndGlyphs" textLength="54" x="954" y="804.2104">addTest()</text><rect fill="#F24D5C" height="6" style="stroke: #C82930; stroke-width: 1.0;" width="6" x="942" y="811.707"/><text fill="#000000" font-family="sans-serif" font-size="11" lengthAdjust="spacingAndGlyphs" textLength="59" x="954" y="817.0151">dropTest()</text><rect fill="#F24D5C" height="6" style="stroke: #C82930; stroke-width: 1.0;" width="6" x="942" y="824.5117"/><text fill="#000000" font-family="sans-serif" font-size="11" lengthAdjust="spacingAndGlyphs" textLength="72" x="954" y="829.8198">updateTest()</text><!--class StorageService--><rect fill="#FEFECE" filter="url(#f1vnngu9505hii)" height="188.8516" id="StorageService" style="stroke: #A80036; stroke-width: 1.5;" width="259" x="1700.5" y="903"/><ellipse cx="1778.25" cy="919" fill="#B4A7E5" rx="11" ry="11" style="stroke: #A80036; stroke-width: 1.0;"/><path d="M1779.2031,915.7813 L1779.2031,922.2969 L1780.9219,922.2969 C1781.375,922.2969 1781.5156,922.3281 1781.6875,922.4531 C1781.9219,922.625 1782.0313,922.875 1782.0313,923.1563 C1782.0313,923.7188 1781.6719,924 1780.9219,924 L1775.7813,924 C1775.375,924 1775.1719,923.9531 1775.0156,923.8281 C1774.7969,923.6719 1774.6563,923.4063 1774.6563,923.1563 C1774.6563,922.8594 1774.8125,922.5781 1775.0625,922.4219 C1775.2188,922.3125 1775.3438,922.2969 1775.7813,922.2969 L1777.5,922.2969 L1777.5,915.7813 L1775.7813,915.7813 C1775.3594,915.7813 1775.1719,915.75 1775.0156,915.6406 C1774.7969,915.4688 1774.6563,915.2188 1774.6563,914.9375 C1774.6563,914.6563 1774.8125,914.3594 1775.0625,914.2031 C1775.2188,914.1094 1775.3438,914.0938 1775.7813,914.0938 L1780.9219,914.0938 C1781.375,914.0938 1781.5156,914.125 1781.6875,914.2344 C1781.9219,914.4063 1782.0313,914.6719 1782.0313,914.9375 C1782.0313,915.2344 1781.8906,915.5156 1781.625,915.6719 C1781.5,915.75 1781.3125,915.7813 1780.9219,915.7813 Z "/><text fill="#000000" font-family="sans-serif" font-size="12" font-style="italic" lengthAdjust="spacingAndGlyphs" textLength="95" x="1798.75" y="923.1543">StorageService</text><line style="stroke: #A80036; stroke-width: 1.5;" x1="1701.5" x2="1958.5" y1="935" y2="935"/><line style="stroke: #A80036; stroke-width: 1.5;" x1="1701.5" x2="1958.5" y1="943" y2="943"/><text fill="#000000" font-family="sans-serif" font-size="11" lengthAdjust="spacingAndGlyphs" textLength="56" x="1706.5" y="957.2104">void init();</text><text fill="#000000" font-family="sans-serif" font-size="11" lengthAdjust="spacingAndGlyphs" textLength="0" x="1710.5" y="970.0151"/><text fill="#000000" font-family="sans-serif" font-size="11" lengthAdjust="spacingAndGlyphs" textLength="158" x="1706.5" y="982.8198">void store(MultipartFile file);</text><text fill="#000000" font-family="sans-serif" font-size="11" lengthAdjust="spacingAndGlyphs" textLength="0" x="1710.5" y="995.6245"/><text fill="#000000" font-family="sans-serif" font-size="11" lengthAdjust="spacingAndGlyphs" textLength="138" x="1706.5" y="1008.4292">Stream&lt;Path&gt; loadAll();</text><text fill="#000000" font-family="sans-serif" font-size="11" lengthAdjust="spacingAndGlyphs" textLength="0" x="1710.5" y="1021.2339"/><text fill="#000000" font-family="sans-serif" font-size="11" lengthAdjust="spacingAndGlyphs" textLength="152" x="1706.5" y="1034.0386">Path load(String filename);</text><text fill="#000000" font-family="sans-serif" font-size="11" lengthAdjust="spacingAndGlyphs" textLength="0" x="1710.5" y="1046.8433"/><text fill="#000000" font-family="sans-serif" font-size="11" lengthAdjust="spacingAndGlyphs" textLength="247" x="1706.5" y="1059.6479">Resource loadAsResource(String filename);</text><text fill="#000000" font-family="sans-serif" font-size="11" lengthAdjust="spacingAndGlyphs" textLength="0" x="1710.5" y="1072.4526"/><text fill="#000000" font-family="sans-serif" font-size="11" lengthAdjust="spacingAndGlyphs" textLength="87" x="1706.5" y="1085.2573">void deleteAll();</text><!--class FileSystemStorageService--><rect fill="#FEFECE" filter="url(#f1vnngu9505hii)" height="60.8047" id="FileSystemStorageService" style="stroke: #A80036; stroke-width: 1.5;" width="193" x="1726.5" y="1171"/><ellipse cx="1741.5" cy="1187" fill="#ADD1B2" rx="11" ry="11" style="stroke: #A80036; stroke-width: 1.0;"/><path d="M1743.8438,1182.6719 L1744.0156,1182.75 C1744.2344,1182.4375 1744.4375,1182.3438 1744.7344,1182.3438 C1745.0313,1182.3438 1745.3125,1182.4844 1745.4688,1182.75 C1745.5625,1182.9063 1745.5781,1183.0313 1745.5781,1183.4688 L1745.5781,1184.8906 C1745.5781,1185.3125 1745.5469,1185.5 1745.4375,1185.6563 C1745.2656,1185.875 1745,1186.0156 1744.7344,1186.0156 C1744.5156,1186.0156 1744.2813,1185.9063 1744.1406,1185.7656 C1744,1185.6406 1743.9688,1185.5156 1743.9063,1185.1094 C1743.8125,1184.7031 1743.6406,1184.4844 1743.1563,1184.2031 C1742.6875,1183.9531 1742.0781,1183.7969 1741.5,1183.7969 C1739.7656,1183.7969 1738.5156,1185.1094 1738.5156,1186.8906 L1738.5156,1187.9844 C1738.5156,1189.6875 1739.8125,1190.7813 1741.8594,1190.7813 C1742.625,1190.7813 1743.3125,1190.6563 1743.7344,1190.3906 C1743.9219,1190.2969 1743.9219,1190.2969 1744.375,1189.8125 C1744.5625,1189.625 1744.7656,1189.5469 1744.9844,1189.5469 C1745.4531,1189.5469 1745.8438,1189.9375 1745.8438,1190.3906 C1745.8438,1190.7813 1745.5156,1191.2344 1744.9375,1191.6406 C1744.1875,1192.1875 1743.0313,1192.4844 1741.8125,1192.4844 C1738.9219,1192.4844 1736.8125,1190.5938 1736.8125,1188.0156 L1736.8125,1186.8906 C1736.8125,1184.1719 1738.8125,1182.0938 1741.4375,1182.0938 C1742.3125,1182.0938 1742.9063,1182.2344 1743.8438,1182.6719 Z "/><text fill="#000000" font-family="sans-serif" font-size="12" lengthAdjust="spacingAndGlyphs" textLength="161" x="1755.5" y="1191.1543">FileSystemStorageService</text><line style="stroke: #A80036; stroke-width: 1.5;" x1="1727.5" x2="1918.5" y1="1203" y2="1203"/><rect fill="none" height="6" style="stroke: #C82930; stroke-width: 1.0;" width="6" x="1734.5" y="1211.9023"/><text fill="#000000" font-family="sans-serif" font-size="11" lengthAdjust="spacingAndGlyphs" textLength="127" x="1746.5" y="1217.2104">final Path rootLocation</text><line style="stroke: #A80036; stroke-width: 1.5;" x1="1727.5" x2="1918.5" y1="1223.8047" y2="1223.8047"/><!--class StorageProperties--><rect fill="#FEFECE" filter="url(#f1vnngu9505hii)" height="86.4141" id="StorageProperties" style="stroke: #A80036; stroke-width: 1.5;" width="181" x="1726.5" y="1311"/><ellipse cx="1756.8" cy="1327" fill="#ADD1B2" rx="11" ry="11" style="stroke: #A80036; stroke-width: 1.0;"/><path d="M1759.1438,1322.6719 L1759.3156,1322.75 C1759.5344,1322.4375 1759.7375,1322.3438 1760.0344,1322.3438 C1760.3313,1322.3438 1760.6125,1322.4844 1760.7688,1322.75 C1760.8625,1322.9063 1760.8781,1323.0313 1760.8781,1323.4688 L1760.8781,1324.8906 C1760.8781,1325.3125 1760.8469,1325.5 1760.7375,1325.6563 C1760.5656,1325.875 1760.3,1326.0156 1760.0344,1326.0156 C1759.8156,1326.0156 1759.5813,1325.9063 1759.4406,1325.7656 C1759.3,1325.6406 1759.2688,1325.5156 1759.2063,1325.1094 C1759.1125,1324.7031 1758.9406,1324.4844 1758.4563,1324.2031 C1757.9875,1323.9531 1757.3781,1323.7969 1756.8,1323.7969 C1755.0656,1323.7969 1753.8156,1325.1094 1753.8156,1326.8906 L1753.8156,1327.9844 C1753.8156,1329.6875 1755.1125,1330.7813 1757.1594,1330.7813 C1757.925,1330.7813 1758.6125,1330.6563 1759.0344,1330.3906 C1759.2219,1330.2969 1759.2219,1330.2969 1759.675,1329.8125 C1759.8625,1329.625 1760.0656,1329.5469 1760.2844,1329.5469 C1760.7531,1329.5469 1761.1438,1329.9375 1761.1438,1330.3906 C1761.1438,1330.7813 1760.8156,1331.2344 1760.2375,1331.6406 C1759.4875,1332.1875 1758.3313,1332.4844 1757.1125,1332.4844 C1754.2219,1332.4844 1752.1125,1330.5938 1752.1125,1328.0156 L1752.1125,1326.8906 C1752.1125,1324.1719 1754.1125,1322.0938 1756.7375,1322.0938 C1757.6125,1322.0938 1758.2063,1322.2344 1759.1438,1322.6719 Z "/><text fill="#000000" font-family="sans-serif" font-size="12" lengthAdjust="spacingAndGlyphs" textLength="115" x="1774.2" y="1331.1543">StorageProperties</text><line style="stroke: #A80036; stroke-width: 1.5;" x1="1727.5" x2="1906.5" y1="1343" y2="1343"/><rect fill="none" height="6" style="stroke: #C82930; stroke-width: 1.0;" width="6" x="1734.5" y="1351.9023"/><text fill="#000000" font-family="sans-serif" font-size="11" lengthAdjust="spacingAndGlyphs" textLength="86" x="1746.5" y="1357.2104">String location;</text><line style="stroke: #A80036; stroke-width: 1.5;" x1="1727.5" x2="1906.5" y1="1363.8047" y2="1363.8047"/><ellipse cx="1737.5" cy="1375.707" fill="#84BE84" rx="3" ry="3" style="stroke: #038048; stroke-width: 1.0;"/><text fill="#000000" font-family="sans-serif" font-size="11" lengthAdjust="spacingAndGlyphs" textLength="73" x="1746.5" y="1378.0151">getLocation()</text><ellipse cx="1737.5" cy="1388.5117" fill="#84BE84" rx="3" ry="3" style="stroke: #038048; stroke-width: 1.0;"/><text fill="#000000" font-family="sans-serif" font-size="11" lengthAdjust="spacingAndGlyphs" textLength="155" x="1746.5" y="1390.8198">setLocation(String location)</text><!--class StorageException--><rect fill="#FEFECE" filter="url(#f1vnngu9505hii)" height="73.6094" id="StorageException" style="stroke: #A80036; stroke-width: 1.5;" width="329" x="1942.5" y="1317"/><ellipse cx="2047.25" cy="1333" fill="#ADD1B2" rx="11" ry="11" style="stroke: #A80036; stroke-width: 1.0;"/><path d="M2049.5938,1328.6719 L2049.7656,1328.75 C2049.9844,1328.4375 2050.1875,1328.3438 2050.4844,1328.3438 C2050.7813,1328.3438 2051.0625,1328.4844 2051.2188,1328.75 C2051.3125,1328.9063 2051.3281,1329.0313 2051.3281,1329.4688 L2051.3281,1330.8906 C2051.3281,1331.3125 2051.2969,1331.5 2051.1875,1331.6563 C2051.0156,1331.875 2050.75,1332.0156 2050.4844,1332.0156 C2050.2656,1332.0156 2050.0313,1331.9063 2049.8906,1331.7656 C2049.75,1331.6406 2049.7188,1331.5156 2049.6563,1331.1094 C2049.5625,1330.7031 2049.3906,1330.4844 2048.9063,1330.2031 C2048.4375,1329.9531 2047.8281,1329.7969 2047.25,1329.7969 C2045.5156,1329.7969 2044.2656,1331.1094 2044.2656,1332.8906 L2044.2656,1333.9844 C2044.2656,1335.6875 2045.5625,1336.7813 2047.6094,1336.7813 C2048.375,1336.7813 2049.0625,1336.6563 2049.4844,1336.3906 C2049.6719,1336.2969 2049.6719,1336.2969 2050.125,1335.8125 C2050.3125,1335.625 2050.5156,1335.5469 2050.7344,1335.5469 C2051.2031,1335.5469 2051.5938,1335.9375 2051.5938,1336.3906 C2051.5938,1336.7813 2051.2656,1337.2344 2050.6875,1337.6406 C2049.9375,1338.1875 2048.7813,1338.4844 2047.5625,1338.4844 C2044.6719,1338.4844 2042.5625,1336.5938 2042.5625,1334.0156 L2042.5625,1332.8906 C2042.5625,1330.1719 2044.5625,1328.0938 2047.1875,1328.0938 C2048.0625,1328.0938 2048.6563,1328.2344 2049.5938,1328.6719 Z "/><text fill="#000000" font-family="sans-serif" font-size="12" lengthAdjust="spacingAndGlyphs" textLength="111" x="2067.75" y="1337.1543">StorageException</text><line style="stroke: #A80036; stroke-width: 1.5;" x1="1943.5" x2="2270.5" y1="1349" y2="1349"/><line style="stroke: #A80036; stroke-width: 1.5;" x1="1943.5" x2="2270.5" y1="1357" y2="1357"/><ellipse cx="1953.5" cy="1368.9023" fill="#84BE84" rx="3" ry="3" style="stroke: #038048; stroke-width: 1.0;"/><text fill="#000000" font-family="sans-serif" font-size="11" lengthAdjust="spacingAndGlyphs" textLength="198" x="1962.5" y="1371.2104">StorageException(String message)</text><ellipse cx="1953.5" cy="1381.707" fill="#84BE84" rx="3" ry="3" style="stroke: #038048; stroke-width: 1.0;"/><text fill="#000000" font-family="sans-serif" font-size="11" lengthAdjust="spacingAndGlyphs" textLength="303" x="1962.5" y="1384.0151">StorageException(String message, Throwable cause)</text><!--class RuntimeException--><rect fill="#FEFECE" filter="url(#f1vnngu9505hii)" height="48" id="RuntimeException" style="stroke: #A80036; stroke-width: 1.5;" width="144" x="2035" y="1177.5"/><ellipse cx="2050" cy="1193.5" fill="#ADD1B2" rx="11" ry="11" style="stroke: #A80036; stroke-width: 1.0;"/><path d="M2052.3438,1189.1719 L2052.5156,1189.25 C2052.7344,1188.9375 2052.9375,1188.8438 2053.2344,1188.8438 C2053.5313,1188.8438 2053.8125,1188.9844 2053.9688,1189.25 C2054.0625,1189.4063 2054.0781,1189.5313 2054.0781,1189.9688 L2054.0781,1191.3906 C2054.0781,1191.8125 2054.0469,1192 2053.9375,1192.1563 C2053.7656,1192.375 2053.5,1192.5156 2053.2344,1192.5156 C2053.0156,1192.5156 2052.7813,1192.4063 2052.6406,1192.2656 C2052.5,1192.1406 2052.4688,1192.0156 2052.4063,1191.6094 C2052.3125,1191.2031 2052.1406,1190.9844 2051.6563,1190.7031 C2051.1875,1190.4531 2050.5781,1190.2969 2050,1190.2969 C2048.2656,1190.2969 2047.0156,1191.6094 2047.0156,1193.3906 L2047.0156,1194.4844 C2047.0156,1196.1875 2048.3125,1197.2813 2050.3594,1197.2813 C2051.125,1197.2813 2051.8125,1197.1563 2052.2344,1196.8906 C2052.4219,1196.7969 2052.4219,1196.7969 2052.875,1196.3125 C2053.0625,1196.125 2053.2656,1196.0469 2053.4844,1196.0469 C2053.9531,1196.0469 2054.3438,1196.4375 2054.3438,1196.8906 C2054.3438,1197.2813 2054.0156,1197.7344 2053.4375,1198.1406 C2052.6875,1198.6875 2051.5313,1198.9844 2050.3125,1198.9844 C2047.4219,1198.9844 2045.3125,1197.0938 2045.3125,1194.5156 L2045.3125,1193.3906 C2045.3125,1190.6719 2047.3125,1188.5938 2049.9375,1188.5938 C2050.8125,1188.5938 2051.4063,1188.7344 2052.3438,1189.1719 Z "/><text fill="#000000" font-family="sans-serif" font-size="12" lengthAdjust="spacingAndGlyphs" textLength="112" x="2064" y="1197.6543">RuntimeException</text><line style="stroke: #A80036; stroke-width: 1.5;" x1="2036" x2="2178" y1="1209.5" y2="1209.5"/><line style="stroke: #A80036; stroke-width: 1.5;" x1="2036" x2="2178" y1="1217.5" y2="1217.5"/><!--class StorageFileNotFoundException--><rect fill="#FEFECE" filter="url(#f1vnngu9505hii)" height="73.6094" id="StorageFileNotFoundException" style="stroke: #A80036; stroke-width: 1.5;" width="401" x="1779.5" y="1457"/><ellipse cx="1879.25" cy="1473" fill="#ADD1B2" rx="11" ry="11" style="stroke: #A80036; stroke-width: 1.0;"/><path d="M1881.5938,1468.6719 L1881.7656,1468.75 C1881.9844,1468.4375 1882.1875,1468.3438 1882.4844,1468.3438 C1882.7813,1468.3438 1883.0625,1468.4844 1883.2188,1468.75 C1883.3125,1468.9063 1883.3281,1469.0313 1883.3281,1469.4688 L1883.3281,1470.8906 C1883.3281,1471.3125 1883.2969,1471.5 1883.1875,1471.6563 C1883.0156,1471.875 1882.75,1472.0156 1882.4844,1472.0156 C1882.2656,1472.0156 1882.0313,1471.9063 1881.8906,1471.7656 C1881.75,1471.6406 1881.7188,1471.5156 1881.6563,1471.1094 C1881.5625,1470.7031 1881.3906,1470.4844 1880.9063,1470.2031 C1880.4375,1469.9531 1879.8281,1469.7969 1879.25,1469.7969 C1877.5156,1469.7969 1876.2656,1471.1094 1876.2656,1472.8906 L1876.2656,1473.9844 C1876.2656,1475.6875 1877.5625,1476.7813 1879.6094,1476.7813 C1880.375,1476.7813 1881.0625,1476.6563 1881.4844,1476.3906 C1881.6719,1476.2969 1881.6719,1476.2969 1882.125,1475.8125 C1882.3125,1475.625 1882.5156,1475.5469 1882.7344,1475.5469 C1883.2031,1475.5469 1883.5938,1475.9375 1883.5938,1476.3906 C1883.5938,1476.7813 1883.2656,1477.2344 1882.6875,1477.6406 C1881.9375,1478.1875 1880.7813,1478.4844 1879.5625,1478.4844 C1876.6719,1478.4844 1874.5625,1476.5938 1874.5625,1474.0156 L1874.5625,1472.8906 C1874.5625,1470.1719 1876.5625,1468.0938 1879.1875,1468.0938 C1880.0625,1468.0938 1880.6563,1468.2344 1881.5938,1468.6719 Z "/><text fill="#000000" font-family="sans-serif" font-size="12" lengthAdjust="spacingAndGlyphs" textLength="193" x="1899.75" y="1477.1543">StorageFileNotFoundException</text><line style="stroke: #A80036; stroke-width: 1.5;" x1="1780.5" x2="2179.5" y1="1489" y2="1489"/><line style="stroke: #A80036; stroke-width: 1.5;" x1="1780.5" x2="2179.5" y1="1497" y2="1497"/><ellipse cx="1790.5" cy="1508.9023" fill="#84BE84" rx="3" ry="3" style="stroke: #038048; stroke-width: 1.0;"/><text fill="#000000" font-family="sans-serif" font-size="11" lengthAdjust="spacingAndGlyphs" textLength="270" x="1799.5" y="1511.2104">StorageFileNotFoundException(String message)</text><ellipse cx="1790.5" cy="1521.707" fill="#84BE84" rx="3" ry="3" style="stroke: #038048; stroke-width: 1.0;"/><text fill="#000000" font-family="sans-serif" font-size="11" lengthAdjust="spacingAndGlyphs" textLength="375" x="1799.5" y="1524.0151">StorageFileNotFoundException(String message, Throwable cause)</text><!--class Compiler--><rect fill="#FEFECE" filter="url(#f1vnngu9505hii)" height="163.2422" id="Compiler" style="stroke: #A80036; stroke-width: 1.5;" width="192" x="510" y="916"/><ellipse cx="574.75" cy="932" fill="#A9DCDF" rx="11" ry="11" style="stroke: #A80036; stroke-width: 1.0;"/><path d="M576.3281,933.8125 L572.2813,933.8125 L571.8906,934.7969 L572.2813,934.7969 C572.7344,934.7969 572.875,934.8281 573.0469,934.9531 C573.2656,935.125 573.3906,935.375 573.3906,935.6563 C573.3906,935.9375 573.25,936.2344 572.9844,936.375 C572.8594,936.4688 572.6406,936.5 572.2813,936.5 L570.0156,936.5 C569.2656,936.5 568.8906,936.2188 568.8906,935.6563 C568.8906,935.3594 569.0469,935.0781 569.2969,934.9219 C569.4531,934.8125 569.6094,934.7969 570.0313,934.7969 L572.6719,928.2813 L571.5938,928.2813 C571.1563,928.2813 570.9844,928.25 570.8125,928.1406 C570.5938,927.9688 570.4531,927.7188 570.4531,927.4375 C570.4531,927.1563 570.6094,926.875 570.8594,926.7031 C571.0156,926.6094 571.1406,926.5938 571.5938,926.5938 L575.2656,926.5938 L578.6563,934.7969 C579.125,934.7969 579.2813,934.8281 579.4531,934.9688 C579.6719,935.125 579.8125,935.375 579.8125,935.6563 C579.8125,935.9375 579.6563,936.2344 579.4063,936.375 C579.2656,936.4688 579.0469,936.5 578.6875,936.5 L576.3281,936.5 C575.9063,936.5 575.7031,936.4531 575.5625,936.3281 C575.3438,936.1719 575.2031,935.9219 575.2031,935.6563 C575.2031,935.3594 575.3594,935.0781 575.6094,934.9219 C575.7656,934.8125 575.875,934.7969 576.3281,934.7969 L576.7188,934.7969 Z M575.625,932.1094 L574.2969,928.8438 L572.9531,932.1094 Z "/><text fill="#000000" font-family="sans-serif" font-size="12" font-style="italic" lengthAdjust="spacingAndGlyphs" textLength="54" x="595.25" y="936.1543">Compiler</text><line style="stroke: #A80036; stroke-width: 1.5;" x1="511" x2="701" y1="948" y2="948"/><rect fill="none" height="6" style="stroke: #C82930; stroke-width: 1.0;" width="6" x="518" y="956.9023"/><text fill="#000000" font-family="sans-serif" font-size="11" lengthAdjust="spacingAndGlyphs" textLength="44" x="530" y="962.2104">File file;</text><rect fill="none" height="6" style="stroke: #C82930; stroke-width: 1.0;" width="6" x="518" y="969.707"/><text fill="#000000" font-family="sans-serif" font-size="11" lengthAdjust="spacingAndGlyphs" textLength="92" x="530" y="975.0151">String fileName;</text><rect fill="none" height="6" style="stroke: #C82930; stroke-width: 1.0;" width="6" x="518" y="982.5117"/><text fill="#000000" font-family="sans-serif" font-size="11" lengthAdjust="spacingAndGlyphs" textLength="110" x="530" y="987.8198">String fileDirectory;</text><line style="stroke: #A80036; stroke-width: 1.5;" x1="511" x2="701" y1="994.4141" y2="994.4141"/><ellipse cx="521" cy="1006.3164" fill="#84BE84" rx="3" ry="3" style="stroke: #038048; stroke-width: 1.0;"/><text fill="#000000" font-family="sans-serif" font-size="11" lengthAdjust="spacingAndGlyphs" textLength="103" x="530" y="1008.6245">Compiler(File file);</text><ellipse cx="521" cy="1019.1211" fill="#84BE84" rx="3" ry="3" style="stroke: #038048; stroke-width: 1.0;"/><text fill="#000000" font-family="sans-serif" font-size="11" lengthAdjust="spacingAndGlyphs" textLength="58" x="530" y="1021.4292">void run();</text><ellipse cx="521" cy="1031.9258" fill="#84BE84" rx="3" ry="3" style="stroke: #038048; stroke-width: 1.0;"/><text fill="#000000" font-family="sans-serif" font-size="11" lengthAdjust="spacingAndGlyphs" textLength="121" x="530" y="1034.2339">void buildContainer();</text><ellipse cx="521" cy="1044.7305" fill="#84BE84" rx="3" ry="3" style="stroke: #038048; stroke-width: 1.0;"/><text fill="#000000" font-family="sans-serif" font-size="11" lengthAdjust="spacingAndGlyphs" textLength="166" x="530" y="1047.0386">void teardownDockerImage();</text><ellipse cx="521" cy="1057.5352" fill="#84BE84" rx="3" ry="3" style="stroke: #038048; stroke-width: 1.0;"/><text fill="#000000" font-family="sans-serif" font-size="11" lengthAdjust="spacingAndGlyphs" textLength="138" x="530" y="1059.8433">void removeDockerfile();</text><ellipse cx="521" cy="1070.3398" fill="#84BE84" rx="3" ry="3" style="stroke: #038048; stroke-width: 1.0;"/><text fill="#000000" font-family="sans-serif" font-size="11" font-style="italic" lengthAdjust="spacingAndGlyphs" textLength="132" x="530" y="1072.6479">void createDockerfile();</text><!--class JavaCompiler--><rect fill="#FEFECE" filter="url(#f1vnngu9505hii)" height="99.2188" id="JavaCompiler" style="stroke: #A80036; stroke-width: 1.5;" width="157" x="393.5" y="1152"/><ellipse cx="429.2" cy="1168" fill="#ADD1B2" rx="11" ry="11" style="stroke: #A80036; stroke-width: 1.0;"/><path d="M431.5438,1163.6719 L431.7156,1163.75 C431.9344,1163.4375 432.1375,1163.3438 432.4344,1163.3438 C432.7313,1163.3438 433.0125,1163.4844 433.1688,1163.75 C433.2625,1163.9063 433.2781,1164.0313 433.2781,1164.4688 L433.2781,1165.8906 C433.2781,1166.3125 433.2469,1166.5 433.1375,1166.6563 C432.9656,1166.875 432.7,1167.0156 432.4344,1167.0156 C432.2156,1167.0156 431.9813,1166.9063 431.8406,1166.7656 C431.7,1166.6406 431.6688,1166.5156 431.6063,1166.1094 C431.5125,1165.7031 431.3406,1165.4844 430.8563,1165.2031 C430.3875,1164.9531 429.7781,1164.7969 429.2,1164.7969 C427.4656,1164.7969 426.2156,1166.1094 426.2156,1167.8906 L426.2156,1168.9844 C426.2156,1170.6875 427.5125,1171.7813 429.5594,1171.7813 C430.325,1171.7813 431.0125,1171.6563 431.4344,1171.3906 C431.6219,1171.2969 431.6219,1171.2969 432.075,1170.8125 C432.2625,1170.625 432.4656,1170.5469 432.6844,1170.5469 C433.1531,1170.5469 433.5438,1170.9375 433.5438,1171.3906 C433.5438,1171.7813 433.2156,1172.2344 432.6375,1172.6406 C431.8875,1173.1875 430.7313,1173.4844 429.5125,1173.4844 C426.6219,1173.4844 424.5125,1171.5938 424.5125,1169.0156 L424.5125,1167.8906 C424.5125,1165.1719 426.5125,1163.0938 429.1375,1163.0938 C430.0125,1163.0938 430.6063,1163.2344 431.5438,1163.6719 Z "/><text fill="#000000" font-family="sans-serif" font-size="12" lengthAdjust="spacingAndGlyphs" textLength="79" x="447.8" y="1172.1543">JavaCompiler</text><line style="stroke: #A80036; stroke-width: 1.5;" x1="394.5" x2="549.5" y1="1184" y2="1184"/><rect fill="none" height="6" style="stroke: #C82930; stroke-width: 1.0;" width="6" x="401.5" y="1192.9023"/><text fill="#000000" font-family="sans-serif" font-size="11" lengthAdjust="spacingAndGlyphs" textLength="92" x="413.5" y="1198.2104">String fileName;</text><rect fill="none" height="6" style="stroke: #C82930; stroke-width: 1.0;" width="6" x="401.5" y="1205.707"/><text fill="#000000" font-family="sans-serif" font-size="11" lengthAdjust="spacingAndGlyphs" textLength="110" x="413.5" y="1211.0151">String fileDirectory;</text><line style="stroke: #A80036; stroke-width: 1.5;" x1="394.5" x2="549.5" y1="1217.6094" y2="1217.6094"/><ellipse cx="404.5" cy="1229.5117" fill="#84BE84" rx="3" ry="3" style="stroke: #038048; stroke-width: 1.0;"/><text fill="#000000" font-family="sans-serif" font-size="11" lengthAdjust="spacingAndGlyphs" textLength="126" x="413.5" y="1231.8198">JavaCompiler(File file);</text><ellipse cx="404.5" cy="1242.3164" fill="#84BE84" rx="3" ry="3" style="stroke: #038048; stroke-width: 1.0;"/><text fill="#000000" font-family="sans-serif" font-size="11" lengthAdjust="spacingAndGlyphs" textLength="131" x="413.5" y="1244.6245">void createDockerfile();</text><!--class CompilerFactory--><rect fill="#FEFECE" filter="url(#f1vnngu9505hii)" height="60.8047" id="CompilerFactory" style="stroke: #A80036; stroke-width: 1.5;" width="274" x="201" y="967"/><ellipse cx="283.75" cy="983" fill="#ADD1B2" rx="11" ry="11" style="stroke: #A80036; stroke-width: 1.0;"/><path d="M286.0938,978.6719 L286.2656,978.75 C286.4844,978.4375 286.6875,978.3438 286.9844,978.3438 C287.2813,978.3438 287.5625,978.4844 287.7188,978.75 C287.8125,978.9063 287.8281,979.0313 287.8281,979.4688 L287.8281,980.8906 C287.8281,981.3125 287.7969,981.5 287.6875,981.6563 C287.5156,981.875 287.25,982.0156 286.9844,982.0156 C286.7656,982.0156 286.5313,981.9063 286.3906,981.7656 C286.25,981.6406 286.2188,981.5156 286.1563,981.1094 C286.0625,980.7031 285.8906,980.4844 285.4063,980.2031 C284.9375,979.9531 284.3281,979.7969 283.75,979.7969 C282.0156,979.7969 280.7656,981.1094 280.7656,982.8906 L280.7656,983.9844 C280.7656,985.6875 282.0625,986.7813 284.1094,986.7813 C284.875,986.7813 285.5625,986.6563 285.9844,986.3906 C286.1719,986.2969 286.1719,986.2969 286.625,985.8125 C286.8125,985.625 287.0156,985.5469 287.2344,985.5469 C287.7031,985.5469 288.0938,985.9375 288.0938,986.3906 C288.0938,986.7813 287.7656,987.2344 287.1875,987.6406 C286.4375,988.1875 285.2813,988.4844 284.0625,988.4844 C281.1719,988.4844 279.0625,986.5938 279.0625,984.0156 L279.0625,982.8906 C279.0625,980.1719 281.0625,978.0938 283.6875,978.0938 C284.5625,978.0938 285.1563,978.2344 286.0938,978.6719 Z "/><text fill="#000000" font-family="sans-serif" font-size="12" lengthAdjust="spacingAndGlyphs" textLength="100" x="304.25" y="987.1543">CompilerFactory</text><line style="stroke: #A80036; stroke-width: 1.5;" x1="202" x2="474" y1="999" y2="999"/><line style="stroke: #A80036; stroke-width: 1.5;" x1="202" x2="474" y1="1007" y2="1007"/><ellipse cx="212" cy="1018.9023" fill="#84BE84" rx="3" ry="3" style="stroke: #038048; stroke-width: 1.0;"/><text fill="#000000" font-family="sans-serif" font-size="11" lengthAdjust="spacingAndGlyphs" textLength="248" x="221" y="1021.2104">Compiler getCompiler(Object type, File file);</text><!--class AppComponent--><rect fill="#FEFECE" filter="url(#f1vnngu9505hii)" height="48" id="AppComponent" style="stroke: #A80036; stroke-width: 1.5;" width="128" x="1530" y="59"/><ellipse cx="1545" cy="75" fill="#ADD1B2" rx="11" ry="11" style="stroke: #A80036; stroke-width: 1.0;"/><path d="M1547.3438,70.6719 L1547.5156,70.75 C1547.7344,70.4375 1547.9375,70.3438 1548.2344,70.3438 C1548.5313,70.3438 1548.8125,70.4844 1548.9688,70.75 C1549.0625,70.9063 1549.0781,71.0313 1549.0781,71.4688 L1549.0781,72.8906 C1549.0781,73.3125 1549.0469,73.5 1548.9375,73.6563 C1548.7656,73.875 1548.5,74.0156 1548.2344,74.0156 C1548.0156,74.0156 1547.7813,73.9063 1547.6406,73.7656 C1547.5,73.6406 1547.4688,73.5156 1547.4063,73.1094 C1547.3125,72.7031 1547.1406,72.4844 1546.6563,72.2031 C1546.1875,71.9531 1545.5781,71.7969 1545,71.7969 C1543.2656,71.7969 1542.0156,73.1094 1542.0156,74.8906 L1542.0156,75.9844 C1542.0156,77.6875 1543.3125,78.7813 1545.3594,78.7813 C1546.125,78.7813 1546.8125,78.6563 1547.2344,78.3906 C1547.4219,78.2969 1547.4219,78.2969 1547.875,77.8125 C1548.0625,77.625 1548.2656,77.5469 1548.4844,77.5469 C1548.9531,77.5469 1549.3438,77.9375 1549.3438,78.3906 C1549.3438,78.7813 1549.0156,79.2344 1548.4375,79.6406 C1547.6875,80.1875 1546.5313,80.4844 1545.3125,80.4844 C1542.4219,80.4844 1540.3125,78.5938 1540.3125,76.0156 L1540.3125,74.8906 C1540.3125,72.1719 1542.3125,70.0938 1544.9375,70.0938 C1545.8125,70.0938 1546.4063,70.2344 1547.3438,70.6719 Z "/><text fill="#000000" font-family="sans-serif" font-size="12" lengthAdjust="spacingAndGlyphs" textLength="96" x="1559" y="79.1543">AppComponent</text><line style="stroke: #A80036; stroke-width: 1.5;" x1="1531" x2="1657" y1="91" y2="91"/><line style="stroke: #A80036; stroke-width: 1.5;" x1="1531" x2="1657" y1="99" y2="99"/><!--class ClassInfoComponent--><rect fill="#FEFECE" filter="url(#f1vnngu9505hii)" height="48" id="ClassInfoComponent" style="stroke: #A80036; stroke-width: 1.5;" width="160" x="1328" y="383"/><ellipse cx="1343" cy="399" fill="#ADD1B2" rx="11" ry="11" style="stroke: #A80036; stroke-width: 1.0;"/><path d="M1345.3438,394.6719 L1345.5156,394.75 C1345.7344,394.4375 1345.9375,394.3438 1346.2344,394.3438 C1346.5313,394.3438 1346.8125,394.4844 1346.9688,394.75 C1347.0625,394.9063 1347.0781,395.0313 1347.0781,395.4688 L1347.0781,396.8906 C1347.0781,397.3125 1347.0469,397.5 1346.9375,397.6563 C1346.7656,397.875 1346.5,398.0156 1346.2344,398.0156 C1346.0156,398.0156 1345.7813,397.9063 1345.6406,397.7656 C1345.5,397.6406 1345.4688,397.5156 1345.4063,397.1094 C1345.3125,396.7031 1345.1406,396.4844 1344.6563,396.2031 C1344.1875,395.9531 1343.5781,395.7969 1343,395.7969 C1341.2656,395.7969 1340.0156,397.1094 1340.0156,398.8906 L1340.0156,399.9844 C1340.0156,401.6875 1341.3125,402.7813 1343.3594,402.7813 C1344.125,402.7813 1344.8125,402.6563 1345.2344,402.3906 C1345.4219,402.2969 1345.4219,402.2969 1345.875,401.8125 C1346.0625,401.625 1346.2656,401.5469 1346.4844,401.5469 C1346.9531,401.5469 1347.3438,401.9375 1347.3438,402.3906 C1347.3438,402.7813 1347.0156,403.2344 1346.4375,403.6406 C1345.6875,404.1875 1344.5313,404.4844 1343.3125,404.4844 C1340.4219,404.4844 1338.3125,402.5938 1338.3125,400.0156 L1338.3125,398.8906 C1338.3125,396.1719 1340.3125,394.0938 1342.9375,394.0938 C1343.8125,394.0938 1344.4063,394.2344 1345.3438,394.6719 Z "/><text fill="#000000" font-family="sans-serif" font-size="12" lengthAdjust="spacingAndGlyphs" textLength="128" x="1357" y="403.1543">ClassInfoComponent</text><line style="stroke: #A80036; stroke-width: 1.5;" x1="1329" x2="1487" y1="415" y2="415"/><line style="stroke: #A80036; stroke-width: 1.5;" x1="1329" x2="1487" y1="423" y2="423"/><!--class HomeworkPageComponent--><rect fill="#FEFECE" filter="url(#f1vnngu9505hii)" height="48" id="HomeworkPageComponent" style="stroke: #A80036; stroke-width: 1.5;" width="201" x="1523.5" y="383"/><ellipse cx="1538.5" cy="399" fill="#ADD1B2" rx="11" ry="11" style="stroke: #A80036; stroke-width: 1.0;"/><path d="M1540.8438,394.6719 L1541.0156,394.75 C1541.2344,394.4375 1541.4375,394.3438 1541.7344,394.3438 C1542.0313,394.3438 1542.3125,394.4844 1542.4688,394.75 C1542.5625,394.9063 1542.5781,395.0313 1542.5781,395.4688 L1542.5781,396.8906 C1542.5781,397.3125 1542.5469,397.5 1542.4375,397.6563 C1542.2656,397.875 1542,398.0156 1541.7344,398.0156 C1541.5156,398.0156 1541.2813,397.9063 1541.1406,397.7656 C1541,397.6406 1540.9688,397.5156 1540.9063,397.1094 C1540.8125,396.7031 1540.6406,396.4844 1540.1563,396.2031 C1539.6875,395.9531 1539.0781,395.7969 1538.5,395.7969 C1536.7656,395.7969 1535.5156,397.1094 1535.5156,398.8906 L1535.5156,399.9844 C1535.5156,401.6875 1536.8125,402.7813 1538.8594,402.7813 C1539.625,402.7813 1540.3125,402.6563 1540.7344,402.3906 C1540.9219,402.2969 1540.9219,402.2969 1541.375,401.8125 C1541.5625,401.625 1541.7656,401.5469 1541.9844,401.5469 C1542.4531,401.5469 1542.8438,401.9375 1542.8438,402.3906 C1542.8438,402.7813 1542.5156,403.2344 1541.9375,403.6406 C1541.1875,404.1875 1540.0313,404.4844 1538.8125,404.4844 C1535.9219,404.4844 1533.8125,402.5938 1533.8125,400.0156 L1533.8125,398.8906 C1533.8125,396.1719 1535.8125,394.0938 1538.4375,394.0938 C1539.3125,394.0938 1539.9063,394.2344 1540.8438,394.6719 Z "/><text fill="#000000" font-family="sans-serif" font-size="12" lengthAdjust="spacingAndGlyphs" textLength="169" x="1552.5" y="403.1543">HomeworkPageComponent</text><line style="stroke: #A80036; stroke-width: 1.5;" x1="1524.5" x2="1723.5" y1="415" y2="415"/><line style="stroke: #A80036; stroke-width: 1.5;" x1="1524.5" x2="1723.5" y1="423" y2="423"/><!--class LoginComponent--><rect fill="#FEFECE" filter="url(#f1vnngu9505hii)" height="48" id="LoginComponent" style="stroke: #A80036; stroke-width: 1.5;" width="137" x="1525.5" y="167"/><ellipse cx="1540.5" cy="183" fill="#ADD1B2" rx="11" ry="11" style="stroke: #A80036; stroke-width: 1.0;"/><path d="M1542.8438,178.6719 L1543.0156,178.75 C1543.2344,178.4375 1543.4375,178.3438 1543.7344,178.3438 C1544.0313,178.3438 1544.3125,178.4844 1544.4688,178.75 C1544.5625,178.9063 1544.5781,179.0313 1544.5781,179.4688 L1544.5781,180.8906 C1544.5781,181.3125 1544.5469,181.5 1544.4375,181.6563 C1544.2656,181.875 1544,182.0156 1543.7344,182.0156 C1543.5156,182.0156 1543.2813,181.9063 1543.1406,181.7656 C1543,181.6406 1542.9688,181.5156 1542.9063,181.1094 C1542.8125,180.7031 1542.6406,180.4844 1542.1563,180.2031 C1541.6875,179.9531 1541.0781,179.7969 1540.5,179.7969 C1538.7656,179.7969 1537.5156,181.1094 1537.5156,182.8906 L1537.5156,183.9844 C1537.5156,185.6875 1538.8125,186.7813 1540.8594,186.7813 C1541.625,186.7813 1542.3125,186.6563 1542.7344,186.3906 C1542.9219,186.2969 1542.9219,186.2969 1543.375,185.8125 C1543.5625,185.625 1543.7656,185.5469 1543.9844,185.5469 C1544.4531,185.5469 1544.8438,185.9375 1544.8438,186.3906 C1544.8438,186.7813 1544.5156,187.2344 1543.9375,187.6406 C1543.1875,188.1875 1542.0313,188.4844 1540.8125,188.4844 C1537.9219,188.4844 1535.8125,186.5938 1535.8125,184.0156 L1535.8125,182.8906 C1535.8125,180.1719 1537.8125,178.0938 1540.4375,178.0938 C1541.3125,178.0938 1541.9063,178.2344 1542.8438,178.6719 Z "/><text fill="#000000" font-family="sans-serif" font-size="12" lengthAdjust="spacingAndGlyphs" textLength="105" x="1554.5" y="187.1543">LoginComponent</text><line style="stroke: #A80036; stroke-width: 1.5;" x1="1526.5" x2="1661.5" y1="199" y2="199"/><line style="stroke: #A80036; stroke-width: 1.5;" x1="1526.5" x2="1661.5" y1="207" y2="207"/><!--class UploadService--><rect fill="#FEFECE" filter="url(#f1vnngu9505hii)" height="124.8281" id="UploadService" style="stroke: #A80036; stroke-width: 1.5;" width="334" x="1291" y="491"/><ellipse cx="1409.25" cy="507" fill="#ADD1B2" rx="11" ry="11" style="stroke: #A80036; stroke-width: 1.0;"/><path d="M1411.5938,502.6719 L1411.7656,502.75 C1411.9844,502.4375 1412.1875,502.3438 1412.4844,502.3438 C1412.7813,502.3438 1413.0625,502.4844 1413.2188,502.75 C1413.3125,502.9063 1413.3281,503.0313 1413.3281,503.4688 L1413.3281,504.8906 C1413.3281,505.3125 1413.2969,505.5 1413.1875,505.6563 C1413.0156,505.875 1412.75,506.0156 1412.4844,506.0156 C1412.2656,506.0156 1412.0313,505.9063 1411.8906,505.7656 C1411.75,505.6406 1411.7188,505.5156 1411.6563,505.1094 C1411.5625,504.7031 1411.3906,504.4844 1410.9063,504.2031 C1410.4375,503.9531 1409.8281,503.7969 1409.25,503.7969 C1407.5156,503.7969 1406.2656,505.1094 1406.2656,506.8906 L1406.2656,507.9844 C1406.2656,509.6875 1407.5625,510.7813 1409.6094,510.7813 C1410.375,510.7813 1411.0625,510.6563 1411.4844,510.3906 C1411.6719,510.2969 1411.6719,510.2969 1412.125,509.8125 C1412.3125,509.625 1412.5156,509.5469 1412.7344,509.5469 C1413.2031,509.5469 1413.5938,509.9375 1413.5938,510.3906 C1413.5938,510.7813 1413.2656,511.2344 1412.6875,511.6406 C1411.9375,512.1875 1410.7813,512.4844 1409.5625,512.4844 C1406.6719,512.4844 1404.5625,510.5938 1404.5625,508.0156 L1404.5625,506.8906 C1404.5625,504.1719 1406.5625,502.0938 1409.1875,502.0938 C1410.0625,502.0938 1410.6563,502.2344 1411.5938,502.6719 Z "/><text fill="#000000" font-family="sans-serif" font-size="12" lengthAdjust="spacingAndGlyphs" textLength="89" x="1429.75" y="511.1543">UploadService</text><line style="stroke: #A80036; stroke-width: 1.5;" x1="1292" x2="1624" y1="523" y2="523"/><rect fill="none" height="6" style="stroke: #C82930; stroke-width: 1.0;" width="6" x="1299" y="531.9023"/><text fill="#000000" font-family="sans-serif" font-size="11" lengthAdjust="spacingAndGlyphs" textLength="33" x="1311" y="537.2104">apiUrl</text><rect fill="none" height="6" style="stroke: #C82930; stroke-width: 1.0;" width="6" x="1299" y="544.707"/><text fill="#000000" font-family="sans-serif" font-size="11" lengthAdjust="spacingAndGlyphs" textLength="81" x="1311" y="550.0151">http HttpClient</text><line style="stroke: #A80036; stroke-width: 1.5;" x1="1292" x2="1624" y1="556.6094" y2="556.6094"/><ellipse cx="1302" cy="568.5117" fill="#84BE84" rx="3" ry="3" style="stroke: #038048; stroke-width: 1.0;"/><text fill="#000000" font-family="sans-serif" font-size="11" lengthAdjust="spacingAndGlyphs" textLength="187" x="1311" y="570.8198">getClasses(Promise &lt;String []&gt;)</text><ellipse cx="1302" cy="581.3164" fill="#84BE84" rx="3" ry="3" style="stroke: #038048; stroke-width: 1.0;"/><text fill="#000000" font-family="sans-serif" font-size="11" lengthAdjust="spacingAndGlyphs" textLength="177" x="1311" y="583.6245">runDocker(Promise&lt;String []&gt;)</text><ellipse cx="1302" cy="594.1211" fill="#84BE84" rx="3" ry="3" style="stroke: #038048; stroke-width: 1.0;"/><text fill="#000000" font-family="sans-serif" font-size="11" lengthAdjust="spacingAndGlyphs" textLength="197" x="1311" y="596.4292">getHomeworks (givenClass String)</text><ellipse cx="1302" cy="606.9258" fill="#84BE84" rx="3" ry="3" style="stroke: #038048; stroke-width: 1.0;"/><text fill="#000000" font-family="sans-serif" font-size="11" lengthAdjust="spacingAndGlyphs" textLength="308" x="1311" y="609.2339">getResults (givenClass String, givenHomework String)</text><!--class UserPageComponent--><rect fill="#FEFECE" filter="url(#f1vnngu9505hii)" height="48" id="UserPageComponent" style="stroke: #A80036; stroke-width: 1.5;" width="165" x="1387.5" y="275"/><ellipse cx="1402.5" cy="291" fill="#ADD1B2" rx="11" ry="11" style="stroke: #A80036; stroke-width: 1.0;"/><path d="M1404.8438,286.6719 L1405.0156,286.75 C1405.2344,286.4375 1405.4375,286.3438 1405.7344,286.3438 C1406.0313,286.3438 1406.3125,286.4844 1406.4688,286.75 C1406.5625,286.9063 1406.5781,287.0313 1406.5781,287.4688 L1406.5781,288.8906 C1406.5781,289.3125 1406.5469,289.5 1406.4375,289.6563 C1406.2656,289.875 1406,290.0156 1405.7344,290.0156 C1405.5156,290.0156 1405.2813,289.9063 1405.1406,289.7656 C1405,289.6406 1404.9688,289.5156 1404.9063,289.1094 C1404.8125,288.7031 1404.6406,288.4844 1404.1563,288.2031 C1403.6875,287.9531 1403.0781,287.7969 1402.5,287.7969 C1400.7656,287.7969 1399.5156,289.1094 1399.5156,290.8906 L1399.5156,291.9844 C1399.5156,293.6875 1400.8125,294.7813 1402.8594,294.7813 C1403.625,294.7813 1404.3125,294.6563 1404.7344,294.3906 C1404.9219,294.2969 1404.9219,294.2969 1405.375,293.8125 C1405.5625,293.625 1405.7656,293.5469 1405.9844,293.5469 C1406.4531,293.5469 1406.8438,293.9375 1406.8438,294.3906 C1406.8438,294.7813 1406.5156,295.2344 1405.9375,295.6406 C1405.1875,296.1875 1404.0313,296.4844 1402.8125,296.4844 C1399.9219,296.4844 1397.8125,294.5938 1397.8125,292.0156 L1397.8125,290.8906 C1397.8125,288.1719 1399.8125,286.0938 1402.4375,286.0938 C1403.3125,286.0938 1403.9063,286.2344 1404.8438,286.6719 Z "/><text fill="#000000" font-family="sans-serif" font-size="12" lengthAdjust="spacingAndGlyphs" textLength="133" x="1416.5" y="295.1543">UserPageComponent</text><line style="stroke: #A80036; stroke-width: 1.5;" x1="1388.5" x2="1551.5" y1="307" y2="307"/><line style="stroke: #A80036; stroke-width: 1.5;" x1="1388.5" x2="1551.5" y1="315" y2="315"/><!--link Application to Role--><path d="M368.292,793 C265.088,793 102,793 102,793 C102,793 102,953.884 102,953.884 " fill="none" id="Application-Role" style="stroke: #A80036; stroke-width: 1.0;"/><polygon fill="#A80036" points="102,966.884,106,960.884,102,954.884,98,960.884,102,966.884" style="stroke: #A80036; stroke-width: 1.0;"/><text fill="#000000" font-family="sans-serif" font-size="13" lengthAdjust="spacingAndGlyphs" textLength="8" x="352.5696" y="789.4222">1</text><text fill="#000000" font-family="sans-serif" font-size="13" lengthAdjust="spacingAndGlyphs" textLength="52" x="44.6375" y="956.1233">0..many</text><!--link Application to UserApplication--><path d="M533.738,812 C637.509,812 802,812 802,812 C802,812 802,968.249 802,968.249 " fill="none" id="Application-UserApplication" style="stroke: #A80036; stroke-width: 1.0;"/><polygon fill="#A80036" points="802,973.249,806,964.249,802,968.249,798,964.249,802,973.249" style="stroke: #A80036; stroke-width: 1.0;"/><text fill="#000000" font-family="sans-serif" font-size="13" lengthAdjust="spacingAndGlyphs" textLength="8" x="541.4631" y="810.1144">1</text><text fill="#000000" font-family="sans-serif" font-size="13" lengthAdjust="spacingAndGlyphs" textLength="52" x="743.6625" y="962.5928">1..many</text><!--link UserApplication to User--><path d="M802,1021.762 C802,1075.932 802,1202 802,1202 C802,1202 1165.35,1202 1165.35,1202 " fill="none" id="UserApplication-User" style="stroke: #A80036; stroke-width: 1.0;"/><polygon fill="#A80036" points="1170.35,1202,1161.35,1198,1165.35,1202,1161.35,1206,1170.35,1202" style="stroke: #A80036; stroke-width: 1.0;"/><text fill="#000000" font-family="sans-serif" font-size="13" lengthAdjust="spacingAndGlyphs" textLength="8" x="793.025" y="1041.5871">1</text><text fill="#000000" font-family="sans-serif" font-size="13" lengthAdjust="spacingAndGlyphs" textLength="8" x="1154.3372" y="1197.4635">1</text><!--link User to Login--><path d="M1201,1238.664 C1201,1238.664 1201,1329.949 1201,1329.949 " fill="none" id="User-Login" style="stroke: #A80036; stroke-width: 1.0;"/><polygon fill="#A80036" points="1201,1225.664,1197,1231.664,1201,1237.664,1205,1231.664,1201,1225.664" style="stroke: #A80036; stroke-width: 1.0;"/><!--link StorageService to FileSystemStorageService--><path d="M1823,1112.035 C1823,1112.035 1823,1170.579 1823,1170.579 " fill="none" id="StorageService-FileSystemStorageService" style="stroke: #A80036; stroke-width: 1.0; stroke-dasharray: 7.0,7.0;"/><polygon fill="none" points="1816,1112.035,1823,1092.035,1830,1112.035,1816,1112.035" style="stroke: #A80036; stroke-width: 1.0;"/><!--link RuntimeException to StorageException--><path d="M2107,1245.664 C2107,1245.664 2107,1316.862 2107,1316.862 " fill="none" id="RuntimeException-StorageException" style="stroke: #A80036; stroke-width: 1.0;"/><polygon fill="none" points="2100,1245.664,2107,1225.664,2114,1245.664,2100,1245.664" style="stroke: #A80036; stroke-width: 1.0;"/><!--link StorageException to StorageFileNotFoundException--><path d="M2061.5,1411.15 C2061.5,1411.15 2061.5,1456.677 2061.5,1456.677 " fill="none" id="StorageException-StorageFileNotFoundException" style="stroke: #A80036; stroke-width: 1.0;"/><polygon fill="none" points="2054.5,1411.15,2061.5,1391.15,2068.5,1411.15,2054.5,1411.15" style="stroke: #A80036; stroke-width: 1.0;"/><!--link TestController to Compiler--><path d="M994,836.031 C994,875.875 994,929 994,929 C994,929 707.409,929 707.409,929 " fill="none" id="TestController-Compiler" style="stroke: #A80036; stroke-width: 1.0;"/><polygon fill="#A80036" points="702.409,929,711.409,933,707.409,929,711.409,925,702.409,929" style="stroke: #A80036; stroke-width: 1.0;"/><!--link Compiler to JavaCompiler--><path d="M530.25,1099.006 C530.25,1099.006 530.25,1151.835 530.25,1151.835 " fill="none" id="Compiler-JavaCompiler" style="stroke: #A80036; stroke-width: 1.0;"/><polygon fill="none" points="523.25,1099.006,530.25,1079.006,537.25,1099.006,523.25,1099.006" style="stroke: #A80036; stroke-width: 1.0;"/><!--link FileUploadController to Compiler--><path d="M1320.67,817.271 C1320.67,859.492 1320.67,942 1320.67,942 C1320.67,942 707.012,942 707.012,942 " fill="none" id="FileUploadController-Compiler" style="stroke: #A80036; stroke-width: 1.0;"/><polygon fill="#A80036" points="702.012,942,711.012,946,707.012,942,711.012,938,702.012,942" style="stroke: #A80036; stroke-width: 1.0;"/><!--link CompilerFactory to JavaCompiler--><path d="M434.25,1028.041 C434.25,1028.041 434.25,1146.712 434.25,1146.712 " fill="none" id="CompilerFactory-JavaCompiler" style="stroke: #A80036; stroke-width: 1.0;"/><polygon fill="#A80036" points="434.25,1151.712,438.25,1142.712,434.25,1146.712,430.25,1142.712,434.25,1151.712" style="stroke: #A80036; stroke-width: 1.0;"/><!--link FileUploadController to Storage--><path d="M1373.33,817.321 C1373.33,871.624 1373.33,998 1373.33,998 C1373.33,998 1445.1125,998 1517.4563,998 C1553.6281,998 1589.9403,998 1617.4902,998 C1631.2651,998 1642.8494,998 1651.1303,998 C1653.2006,998 1655.0643,998 1656.7042,998 " fill="none" id="FileUploadController-Storage" style="stroke: #A80036; stroke-width: 1.0;"/><polygon fill="#A80036" points="1656.7042,998,1647.7042,994,1651.7042,998,1647.7042,1002,1656.7042,998" style="stroke: #A80036; stroke-width: 1.0;"/><!--link FileSystemStorageService to StorageProperties--><path d="M1817,1232.361 C1817,1232.361 1817,1305.762 1817,1305.762 " fill="none" id="FileSystemStorageService-StorageProperties" style="stroke: #A80036; stroke-width: 1.0;"/><polygon fill="#A80036" points="1817,1310.762,1821,1301.762,1817,1305.762,1813,1301.762,1817,1310.762" style="stroke: #A80036; stroke-width: 1.0;"/><!--link FileSystemStorageService to StorageException--><path d="M1919.69,1202 C1937.71,1202 1951,1202 1951,1202 C1951,1202 1951,1311.817 1951,1311.817 " fill="none" id="FileSystemStorageService-StorageException" style="stroke: #A80036; stroke-width: 1.0;"/><polygon fill="#A80036" points="1951,1316.817,1955,1307.817,1951,1311.817,1947,1307.817,1951,1316.817" style="stroke: #A80036; stroke-width: 1.0;"/><!--link FileSystemStorageService to StorageFileNotFoundException--><path d="M1913.5,1232.25 C1913.5,1232.25 1913.5,1451.817 1913.5,1451.817 " fill="none" id="FileSystemStorageService-StorageFileNotFoundException" style="stroke: #A80036; stroke-width: 1.0;"/><polygon fill="#A80036" points="1913.5,1456.817,1917.5,1447.817,1913.5,1451.817,1909.5,1447.817,1913.5,1456.817" style="stroke: #A80036; stroke-width: 1.0;"/><!--link AppComponent to LoginComponent--><path d="M1594,107.24 C1594,107.24 1594,161.84 1594,161.84 " fill="none" id="AppComponent-LoginComponent" style="stroke: #A80036; stroke-width: 1.0;"/><polygon fill="#A80036" points="1594,166.84,1598,157.84,1594,161.84,1590,157.84,1594,166.84" style="stroke: #A80036; stroke-width: 1.0;"/><!--link LoginComponent to UserPageComponent--><path d="M1539,215.24 C1539,215.24 1539,269.84 1539,269.84 " fill="none" id="LoginComponent-UserPageComponent" style="stroke: #A80036; stroke-width: 1.0;"/><polygon fill="#A80036" points="1539,274.84,1543,265.84,1539,269.84,1535,265.84,1539,274.84" style="stroke: #A80036; stroke-width: 1.0;"/><!--link UserPageComponent to UploadService--><path d="M1505.75,323.4 C1505.75,323.4 1505.75,485.75 1505.75,485.75 " fill="none" id="UserPageComponent-UploadService" style="stroke: #A80036; stroke-width: 1.0; stroke-dasharray: 7.0,7.0;"/><polygon fill="#A80036" points="1505.75,490.75,1509.75,481.75,1505.75,485.75,1501.75,481.75,1505.75,490.75" style="stroke: #A80036; stroke-width: 1.0;"/><!--link UserPageComponent to HomeworkPageComponent--><path d="M1538,323.24 C1538,323.24 1538,377.84 1538,377.84 " fill="none" id="UserPageComponent-HomeworkPageComponent" style="stroke: #A80036; stroke-width: 1.0;"/><polygon fill="#A80036" points="1538,382.84,1542,373.84,1538,377.84,1534,373.84,1538,382.84" style="stroke: #A80036; stroke-width: 1.0;"/><!--link UserPageComponent to ClassInfoComponent--><path d="M1437.75,323.24 C1437.75,323.24 1437.75,377.84 1437.75,377.84 " fill="none" id="UserPageComponent-ClassInfoComponent" style="stroke: #A80036; stroke-width: 1.0;"/><polygon fill="#A80036" points="1437.75,382.84,1441.75,373.84,1437.75,377.84,1433.75,373.84,1437.75,382.84" style="stroke: #A80036; stroke-width: 1.0;"/><!--link HomeworkPageComponent to UploadService--><path d="M1574.25,431.19 C1574.25,431.19 1574.25,485.71 1574.25,485.71 " fill="none" id="HomeworkPageComponent-UploadService" style="stroke: #A80036; stroke-width: 1.0; stroke-dasharray: 7.0,7.0;"/><polygon fill="#A80036" points="1574.25,490.71,1578.25,481.71,1574.25,485.71,1570.25,481.71,1574.25,490.71" style="stroke: #A80036; stroke-width: 1.0;"/><!--link UploadService to Controllers--><path d="M1285.66,554 C1285.66,554 899,554 899,554 C899,554 899,610.982 899,669.2995 C899,676.5892 899,683.8997 899,691.1225 C899,694.7338 899,698.3233 899,701.8771 C899,702.7656 899,703.6519 899,704.5357 C899,704.9776 899,705.4189 899,705.8595 " fill="none" id="UploadService-Controllers" style="stroke: #A80036; stroke-width: 1.0;"/><polygon fill="#A80036" points="899,705.8595,903,696.8595,899,700.8595,895,696.8595,899,705.8595" style="stroke: #A80036; stroke-width: 1.0;"/><polygon fill="#A80036" points="1290.66,554,1281.66,550,1285.66,554,1281.66,558,1290.66,554" style="stroke: #A80036; stroke-width: 1.0;"/><!--link LoginComponent to User--><path d="M1512.19,191 C1512.19,191 1256,191 1256,191 C1256,191 1256,1202 1256,1202 C1256,1202 1244.72,1202 1244.72,1202 " fill="none" id="LoginComponent-User" style="stroke: #A80036; stroke-width: 1.0;"/><polygon fill="#A80036" points="1231.72,1202,1237.72,1206,1243.72,1202,1237.72,1198,1231.72,1202" style="stroke: #A80036; stroke-width: 1.0;"/><polygon fill="#A80036" points="1525.19,191,1516.19,187,1520.19,191,1516.19,195,1525.19,191" style="stroke: #A80036; stroke-width: 1.0;"/><line style="stroke: #A80036; stroke-width: 1.0;" x1="1520.19" x2="1512.19" y1="191" y2="191"/><!--link StudentController to GradeController--><!--link StudentController to AssignmentController--><!--
@startuml
skinparam linetype ortho
package Backend {
class Application {
- String description
+ {static} void main(String[] args);
}

class Role {
- String description
}
Application "1" - -* "0..many" Role

class UserApplication {

}
Application "1" - -> "1..many" UserApplication

class User {

}
UserApplication "1"- -> "1" User

class Login {

}
User *- - Login

package Controllers {
class StudentController{
- addStudent()
- dropStudent()
- updateStudent()
}
class FileUploadController{

}
class GradeController{
- addGrade()
- dropGrade()
- updateGrade()
}
class AssignmentController{
- addAssignment()
- dropAssignment()
- updateAssignment()
}

class TestController {
- addTest()
- dropTest()
-updateTest()
}


}


package Storage {

interface StorageService {
     void init();

    void store(MultipartFile file);

    Stream<Path> loadAll();

    Path load(String filename);

    Resource loadAsResource(String filename);

    void deleteAll();
}

class FileSystemStorageService implements StorageService {
- final Path rootLocation
}

class StorageProperties {
 - String location;
 + getLocation()
 + setLocation(String location)
}

class StorageException extends RuntimeException {
+ StorageException(String message)
+ StorageException(String message, Throwable cause)

}

class StorageFileNotFoundException extends StorageException {
+ StorageFileNotFoundException(String message)
+ StorageFileNotFoundException(String message, Throwable cause)

}

}



package Docker {
abstract class Compiler {
  - File file;
  - String fileName;
  - String fileDirectory;
  + Compiler(File file);
  + void run();
  + void buildContainer();
  + void teardownDockerImage();
  + void removeDockerfile();
  + {abstract} void createDockerfile();
}
TestController - -> Compiler

class JavaCompiler extends Compiler {
  - String fileName;
  - String fileDirectory;
  + JavaCompiler(File file);
  + void createDockerfile();
}

class CompilerFactory {
  + Compiler getCompiler(Object type, File file);
}
}

FileUploadController - -> Compiler
CompilerFactory - -> JavaCompiler
FileUploadController - -> Storage

FileSystemStorageService - -> StorageProperties
FileSystemStorageService - -> StorageException
FileSystemStorageService - -> StorageFileNotFoundException
}



package Frontend {
class AppComponent {

}

class ClassInfoComponent {

}

class HomeworkPageComponent {

}

class LoginComponent {

}

class UploadService {
- apiUrl
- http HttpClient

+ getClasses(Promise <String []>)
+ runDocker(Promise<String []>)
+ getHomeworks (givenClass String)
+ getResults (givenClass String, givenHomework String)
}
class UserPageComponent {

}

AppComponent - -> LoginComponent
LoginComponent - -> UserPageComponent
UserPageComponent ..> UploadService
UserPageComponent - -> HomeworkPageComponent
UserPageComponent - -> ClassInfoComponent
HomeworkPageComponent ..> UploadService

UploadService <- -> Controllers
LoginComponent <- -*User

}
@enduml

PlantUML version 1.2018.14beta12(Unknown compile time)
(GPL source distribution)
Java Runtime: Java(TM) SE Runtime Environment
JVM: Java HotSpot(TM) 64-Bit Server VM
Java Version: 1.7.0_25-b15
Operating System: Linux
Default Encoding: UTF-8
Language: en
Country: US
--></g></svg>